<?xml version="1.0"?>
<svg xmlns="http://www.w3.org/2000/svg" xmlns:xlink="http://www.w3.org/1999/xlink" xmlns:svgjs="http://svgjs.com/svgjs" version="1.1" width="512" height="512" x="0" y="0" viewBox="0 0 24 24" style="enable-background:new 0 0 512 512" xml:space="preserve" class=""><g><path xmlns="http://www.w3.org/2000/svg" d="m.75 12c-.122 0-.243-.029-.354-.089-.244-.131-.396-.385-.396-.661v-7.5c0-.965.785-1.75 1.75-1.75h8.5c1.517 0 2.75 1.233 2.75 2.75v2.5c0 1.517-1.233 2.75-2.75 2.75h-5.89c-.247 0-.49.074-.687.209l-2.509 1.666c-.124.083-.269.125-.414.125z" fill="#cacaca" data-original="#ffc107" style="" class=""/><path xmlns="http://www.w3.org/2000/svg" d="m5.5 12c-1.654 0-3 1.346-3 3s1.346 3 3 3 3-1.346 3-3-1.346-3-3-3z" fill="#9b9b9b" data-original="#2196f3" style="" class=""/><path xmlns="http://www.w3.org/2000/svg" d="m8.25 19h-5.5c-1.517 0-2.75 1.233-2.75 2.75v1.5c0 .414.336.75.75.75h9.5c.414 0 .75-.336.75-.75v-1.5c0-1.517-1.233-2.75-2.75-2.75z" fill="#9b9b9b" data-original="#2196f3" style="" class=""/><path xmlns="http://www.w3.org/2000/svg" d="m5.5 2h-3.75c-.965 0-1.75.785-1.75 1.75v7.5c0 .276.152.53.395.661.112.06.233.089.355.089.145 0 .29-.042.415-.125l2.509-1.666c.196-.135.439-.209.686-.209h1.14z" fill="#b0b0b0" data-original="#dea806" style="" class=""/><path xmlns="http://www.w3.org/2000/svg" d="m5.5 12c-1.654 0-3 1.346-3 3s1.346 3 3 3z" fill="#747474" data-original="#1d83d4" style="" class=""/><path xmlns="http://www.w3.org/2000/svg" d="m5.5 19h-2.75c-1.517 0-2.75 1.233-2.75 2.75v1.5c0 .414.336.75.75.75h4.75z" fill="#747474" data-original="#1d83d4" style="" class=""/><path xmlns="http://www.w3.org/2000/svg" d="m23.25 10c-.146 0-.29-.043-.416-.126l-2.496-1.664c-.206-.138-.445-.21-.693-.21h-5.895c-.965 0-1.75-.785-1.75-1.75v-4.5c0-.965.785-1.75 1.75-1.75h8.5c.965 0 1.75.785 1.75 1.75v7.5c0 .276-.152.531-.397.661-.11.06-.232.089-.353.089z" fill="#9b9b9b" data-original="#2196f3" style="" class=""/><path xmlns="http://www.w3.org/2000/svg" d="m18.5 12c-1.654 0-3 1.346-3 3s1.346 3 3 3 3-1.346 3-3-1.346-3-3-3z" fill="#9b9b9b" data-original="#4caf50" style="" class=""/><path xmlns="http://www.w3.org/2000/svg" d="m21.25 19h-5.5c-1.517 0-2.75 1.233-2.75 2.75v1.5c0 .414.336.75.75.75h9.5c.414 0 .75-.336.75-.75v-1.5c0-1.517-1.233-2.75-2.75-2.75z" fill="#9b9b9b" data-original="#4caf50" style="" class=""/><path xmlns="http://www.w3.org/2000/svg" d="m18.5 0h-4.75c-.965 0-1.75.785-1.75 1.75v4.5c0 .965.785 1.75 1.75 1.75h4.75z" fill="#747474" data-original="#1d83d4" style="" class=""/><g xmlns="http://www.w3.org/2000/svg" fill="#429846"><path d="m18.5 12c-1.654 0-3 1.346-3 3s1.346 3 3 3z" fill="#747474" data-original="#429846" style="" class=""/><path d="m18.5 19h-2.75c-1.517 0-2.75 1.233-2.75 2.75v1.5c0 .414.336.75.75.75h4.75z" fill="#747474" data-original="#429846" style="" class=""/></g></g></svg>
